M48
;GenerationSoftware,Autodesk,EAGLE,9.6.2*%
;CreationDate,2022-09-07T20:56:18Z*%
FMAT,2
ICI,OFF
METRIC,TZ,000.000
T3C0.305
T2C1.016
T1C3.048
%
G90
M71
T1
X80264Y28448
X74676Y74676
X2540Y22860
X2540Y2540
X22860Y22860
X28448Y22860
X28448Y2540
X48768Y22860
X54356Y22860
X54356Y2540
X74676Y22860
X80264Y22860
X80264Y2540
X100584Y22860
X106172Y22860
X106172Y2540
X126492Y22860
X132080Y22860
X132080Y2540
X152400Y22860
X2540Y48768
X2540Y28448
X22860Y48768
X28448Y48768
X28448Y28448
X48768Y48768
X54356Y48768
X54356Y28448
X74676Y48768
X80264Y48768
X48768Y100584
X100584Y48768
X106172Y48768
X106172Y28448
X126492Y48768
X132080Y48768
X132080Y28448
X152400Y48768
X2540Y74676
X2540Y54356
X22860Y74676
X28448Y74676
X28448Y54356
X48768Y74676
X54356Y74676
X54356Y54356
X80264Y74676
X80264Y54356
X100584Y74676
X106172Y74676
X106172Y54356
X126492Y74676
X132080Y74676
X132080Y54356
X152400Y74676
X2540Y100584
X2540Y80264
X22860Y100584
X28448Y100584
X28448Y80264
X152400Y100584
X54356Y100584
X54356Y80264
X74676Y100584
X80264Y100584
X80264Y80264
X100584Y100584
X106172Y100584
X106172Y80264
X126492Y100584
X132080Y100584
X132080Y80264
T2
X151130Y78994
X6350Y1270
X8890Y1270
X11430Y1270
X13970Y1270
X16510Y1270
X19050Y1270
X21590Y1270
X32258Y1270
X34798Y1270
X37338Y1270
X39878Y1270
X42418Y1270
X44958Y1270
X47498Y1270
X58166Y1270
X60706Y1270
X63246Y1270
X65786Y1270
X68326Y1270
X70866Y1270
X73406Y1270
X84074Y1270
X86614Y1270
X89154Y1270
X91694Y1270
X94234Y1270
X96774Y1270
X99314Y1270
X109982Y1270
X112522Y1270
X115062Y1270
X117602Y1270
X120142Y1270
X122682Y1270
X125222Y1270
X135890Y1270
X138430Y1270
X140970Y1270
X143510Y1270
X146050Y1270
X148590Y1270
X151130Y1270
X6350Y27178
X8890Y27178
X11430Y27178
X13970Y27178
X16510Y27178
X19050Y27178
X21590Y27178
X32258Y27178
X34798Y27178
X37338Y27178
X39878Y27178
X42418Y27178
X44958Y27178
X47498Y27178
X58166Y27178
X60706Y27178
X63246Y27178
X65786Y27178
X68326Y27178
X70866Y27178
X73406Y27178
X84074Y27178
X86614Y27178
X89154Y27178
X91694Y27178
X94234Y27178
X96774Y27178
X99314Y27178
X109982Y27178
X112522Y27178
X115062Y27178
X117602Y27178
X120142Y27178
X122682Y27178
X125222Y27178
X135890Y27178
X138430Y27178
X140970Y27178
X143510Y27178
X146050Y27178
X148590Y27178
X151130Y27178
X6350Y53086
X8890Y53086
X11430Y53086
X13970Y53086
X16510Y53086
X19050Y53086
X21590Y53086
X32258Y53086
X34798Y53086
X37338Y53086
X39878Y53086
X42418Y53086
X44958Y53086
X47498Y53086
X58166Y53086
X60706Y53086
X63246Y53086
X65786Y53086
X68326Y53086
X70866Y53086
X73406Y53086
X84074Y53086
X86614Y53086
X89154Y53086
X91694Y53086
X94234Y53086
X96774Y53086
X99314Y53086
X109982Y53086
X112522Y53086
X115062Y53086
X117602Y53086
X120142Y53086
X122682Y53086
X125222Y53086
X135890Y53086
X138430Y53086
X140970Y53086
X143510Y53086
X146050Y53086
X148590Y53086
X151130Y53086
X6350Y78994
X8890Y78994
X11430Y78994
X13970Y78994
X16510Y78994
X19050Y78994
X21590Y78994
X32258Y78994
X34798Y78994
X37338Y78994
X39878Y78994
X42418Y78994
X44958Y78994
X47498Y78994
X58166Y78994
X60706Y78994
X63246Y78994
X65786Y78994
X68326Y78994
X70866Y78994
X73406Y78994
X84074Y78994
X86614Y78994
X89154Y78994
X91694Y78994
X94234Y78994
X96774Y78994
X99314Y78994
X109982Y78994
X112522Y78994
X115062Y78994
X117602Y78994
X120142Y78994
X122682Y78994
X125222Y78994
X135890Y78994
X138430Y78994
X140970Y78994
X143510Y78994
X146050Y78994
X148590Y78994
T3
X111989Y10541
X113995Y10795
X118720Y5334
X109830Y17272
X114402Y16510
X113970Y19304
X119050Y19025
X110719Y12827
X123342Y18847
X121387Y2210
X127305Y11176
X121514Y7112
X119228Y7112
X124714Y9779
X118491Y7874
X112471Y4674
X114046Y6477
X122682Y17145
X124968Y19812
X122682Y7874
X114427Y18669
X118237Y18669
X127889Y19939
X123825Y5588
X122682Y9906
X114554Y9906
X117983Y5334
X114173Y11630
X113261Y13730
X114323Y13716
X118364Y13589
X118364Y11684
X119888Y6477
X113792Y15621
X113919Y17145
X135865Y14224
X133401Y14224
X150241Y24003
X135001Y24003
X131191Y20193
X131191Y4953
X146660Y12827
X144628Y15875
X146660Y11303
X149835Y10414
X148565Y11176
X141453Y7239
X142977Y7239
X149073Y6223
X138405Y13970
X144755Y14097
X153645Y5080
X139802Y2413
X137414Y4394
X133502Y12192
X137897Y10541
X139903Y10795
X144628Y5334
X135738Y17272
X140310Y16510
X139878Y19304
X144958Y19025
X136627Y12827
X149250Y18847
X147295Y2210
X153213Y11176
X147422Y7112
X145136Y7112
X150622Y9779
X144399Y7874
X138379Y4674
X139954Y6477
X148590Y17145
X150876Y19812
X148590Y7874
X140335Y18669
X144145Y18669
X153797Y19939
X149733Y5588
X148590Y9906
X140462Y9906
X143891Y5334
X140081Y11630
X139169Y13730
X140231Y13716
X144272Y13589
X144272Y11684
X145796Y6477
X139700Y15621
X139827Y17145
X6325Y40132
X3861Y40132
X20701Y49911
X5461Y49911
X1651Y46101
X1651Y30861
X17120Y38735
X15088Y41783
X17120Y37211
X20295Y36322
X19025Y37084
X11913Y33147
X13437Y33147
X19533Y32131
X8865Y39878
X15215Y40005
X24105Y30988
X10262Y28321
X7874Y30302
X3962Y38100
X8357Y36449
X10363Y36703
X15088Y31242
X6198Y43180
X10770Y42418
X10338Y45212
X15418Y44933
X7087Y38735
X19710Y44755
X17755Y28118
X23673Y37084
X17882Y33020
X15596Y33020
X21082Y35687
X14859Y33782
X8839Y30582
X10414Y32385
X19050Y43053
X21336Y45720
X19050Y33782
X10795Y44577
X14605Y44577
X24257Y45847
X20193Y31496
X19050Y35814
X10922Y35814
X14351Y31242
X10541Y37538
X9629Y39638
X10691Y39624
X14732Y39497
X14732Y37592
X16256Y32385
X10160Y41529
X10287Y43053
X32233Y40132
X29769Y40132
X46609Y49911
X31369Y49911
X27559Y46101
X27559Y30861
X43028Y38735
X40996Y41783
X43028Y37211
X46203Y36322
X44933Y37084
X37821Y33147
X39345Y33147
X45441Y32131
X34773Y39878
X41123Y40005
X50013Y30988
X36170Y28321
X33782Y30302
X29870Y38100
X34265Y36449
X36271Y36703
X40996Y31242
X32106Y43180
X36678Y42418
X36246Y45212
X41326Y44933
X32995Y38735
X45618Y44755
X43663Y28118
X49581Y37084
X43790Y33020
X41504Y33020
X46990Y35687
X40767Y33782
X34747Y30582
X36322Y32385
X44958Y43053
X47244Y45720
X44958Y33782
X36703Y44577
X40513Y44577
X50165Y45847
X46101Y31496
X44958Y35814
X36830Y35814
X40259Y31242
X36449Y37538
X35537Y39638
X36599Y39624
X40640Y39497
X40640Y37592
X42164Y32385
X36068Y41529
X36195Y43053
X58141Y40132
X55677Y40132
X72517Y49911
X57277Y49911
X53467Y46101
X53467Y30861
X68936Y38735
X66904Y41783
X68936Y37211
X72111Y36322
X70841Y37084
X63729Y33147
X65253Y33147
X71349Y32131
X60681Y39878
X67031Y40005
X75921Y30988
X62078Y28321
X59690Y30302
X55778Y38100
X60173Y36449
X62179Y36703
X66904Y31242
X58014Y43180
X62586Y42418
X62154Y45212
X67234Y44933
X58903Y38735
X71526Y44755
X69571Y28118
X75489Y37084
X69698Y33020
X67412Y33020
X72898Y35687
X66675Y33782
X60655Y30582
X62230Y32385
X70866Y43053
X73152Y45720
X70866Y33782
X62611Y44577
X66421Y44577
X76073Y45847
X72009Y31496
X70866Y35814
X62738Y35814
X66167Y31242
X62357Y37538
X61445Y39638
X62507Y39624
X66548Y39497
X66548Y37592
X68072Y32385
X61976Y41529
X62103Y43053
X84049Y40132
X81585Y40132
X98425Y49911
X83185Y49911
X79375Y46101
X79375Y30861
X94844Y38735
X92812Y41783
X94844Y37211
X98019Y36322
X96749Y37084
X89637Y33147
X91161Y33147
X97257Y32131
X86589Y39878
X92939Y40005
X101829Y30988
X87986Y28321
X85598Y30302
X81686Y38100
X86081Y36449
X88087Y36703
X92812Y31242
X83922Y43180
X88494Y42418
X88062Y45212
X93142Y44933
X84811Y38735
X97434Y44755
X95479Y28118
X101397Y37084
X95606Y33020
X93320Y33020
X98806Y35687
X92583Y33782
X86563Y30582
X88138Y32385
X96774Y43053
X99060Y45720
X96774Y33782
X88519Y44577
X92329Y44577
X101981Y45847
X97917Y31496
X96774Y35814
X88646Y35814
X92075Y31242
X88265Y37538
X87353Y39638
X88415Y39624
X92456Y39497
X92456Y37592
X93980Y32385
X87884Y41529
X88011Y43053
X109957Y40132
X107493Y40132
X124333Y49911
X109093Y49911
X105283Y46101
X105283Y30861
X120752Y38735
X118720Y41783
X120752Y37211
X123927Y36322
X122657Y37084
X115545Y33147
X117069Y33147
X123165Y32131
X112497Y39878
X118847Y40005
X127737Y30988
X113894Y28321
X111506Y30302
X107594Y38100
X111989Y36449
X113995Y36703
X118720Y31242
X109830Y43180
X114402Y42418
X113970Y45212
X119050Y44933
X110719Y38735
X123342Y44755
X121387Y28118
X127305Y37084
X121514Y33020
X119228Y33020
X124714Y35687
X118491Y33782
X112471Y30582
X114046Y32385
X122682Y43053
X124968Y45720
X122682Y33782
X114427Y44577
X118237Y44577
X127889Y45847
X123825Y31496
X122682Y35814
X114554Y35814
X117983Y31242
X114173Y37538
X113261Y39638
X114323Y39624
X118364Y39497
X118364Y37592
X119888Y32385
X113792Y41529
X113919Y43053
X135865Y40132
X133401Y40132
X150241Y49911
X135001Y49911
X131191Y46101
X131191Y30861
X146660Y38735
X144628Y41783
X146660Y37211
X149835Y36322
X148565Y37084
X141453Y33147
X142977Y33147
X149073Y32131
X138405Y39878
X144755Y40005
X153645Y30988
X139802Y28321
X137414Y30302
X133502Y38100
X137897Y36449
X139903Y36703
X144628Y31242
X135738Y43180
X140310Y42418
X139878Y45212
X144958Y44933
X136627Y38735
X149250Y44755
X147295Y28118
X153213Y37084
X147422Y33020
X145136Y33020
X150622Y35687
X144399Y33782
X138379Y30582
X139954Y32385
X148590Y43053
X150876Y45720
X148590Y33782
X140335Y44577
X144145Y44577
X153797Y45847
X149733Y31496
X148590Y35814
X140462Y35814
X143891Y31242
X140081Y37538
X139169Y39638
X140231Y39624
X144272Y39497
X144272Y37592
X145796Y32385
X139700Y41529
X139827Y43053
X6325Y66040
X3861Y66040
X20701Y75819
X5461Y75819
X1651Y72009
X1651Y56769
X17120Y64643
X15088Y67691
X17120Y63119
X20295Y62230
X19025Y62992
X11913Y59055
X13437Y59055
X19533Y58039
X8865Y65786
X15215Y65913
X24105Y56896
X10262Y54229
X7874Y56210
X3962Y64008
X8357Y62357
X10363Y62611
X15088Y57150
X6198Y69088
X10770Y68326
X10338Y71120
X15418Y70841
X7087Y64643
X19710Y70663
X17755Y54026
X23673Y62992
X17882Y58928
X15596Y58928
X21082Y61595
X14859Y59690
X8839Y56490
X10414Y58293
X19050Y68961
X21336Y71628
X19050Y59690
X10795Y70485
X14605Y70485
X24257Y71755
X20193Y57404
X19050Y61722
X10922Y61722
X14351Y57150
X10541Y63446
X9629Y65546
X10691Y65532
X14732Y65405
X14732Y63500
X16256Y58293
X10160Y67437
X10287Y68961
X32233Y66040
X29769Y66040
X46609Y75819
X31369Y75819
X27559Y72009
X27559Y56769
X43028Y64643
X40996Y67691
X43028Y63119
X46203Y62230
X44933Y62992
X37821Y59055
X39345Y59055
X45441Y58039
X34773Y65786
X41123Y65913
X50013Y56896
X36170Y54229
X33782Y56210
X29870Y64008
X34265Y62357
X36271Y62611
X40996Y57150
X32106Y69088
X36678Y68326
X36246Y71120
X41326Y70841
X32995Y64643
X45618Y70663
X43663Y54026
X49581Y62992
X43790Y58928
X41504Y58928
X46990Y61595
X40767Y59690
X34747Y56490
X36322Y58293
X44958Y68961
X47244Y71628
X44958Y59690
X36703Y70485
X40513Y70485
X50165Y71755
X46101Y57404
X44958Y61722
X36830Y61722
X40259Y57150
X36449Y63446
X35537Y65546
X36599Y65532
X40640Y65405
X40640Y63500
X42164Y58293
X36068Y67437
X36195Y68961
X58141Y66040
X55677Y66040
X72517Y75819
X57277Y75819
X53467Y72009
X53467Y56769
X68936Y64643
X66904Y67691
X68936Y63119
X72111Y62230
X101397Y11176
X63729Y59055
X65253Y59055
X71349Y58039
X60681Y65786
X67031Y65913
X75921Y56896
X62078Y54229
X59690Y56210
X55778Y64008
X60173Y62357
X62179Y62611
X66904Y57150
X58014Y69088
X62586Y68326
X62154Y71120
X67234Y70841
X58903Y64643
X71526Y70663
X69571Y54026
X75489Y62992
X69698Y58928
X67412Y58928
X72898Y61595
X66675Y59690
X60655Y56490
X62230Y58293
X70866Y68961
X73152Y71628
X70866Y59690
X62611Y70485
X66421Y70485
X76073Y71755
X72009Y57404
X70866Y61722
X62738Y61722
X66167Y57150
X62357Y63446
X61445Y65546
X62507Y65532
X66548Y65405
X66548Y63500
X68072Y58293
X61976Y67437
X62103Y68961
X84049Y66040
X81585Y66040
X98425Y75819
X83185Y75819
X79375Y72009
X79375Y56769
X94844Y64643
X92812Y67691
X94844Y63119
X98019Y62230
X96749Y62992
X89637Y59055
X91161Y59055
X97257Y58039
X86589Y65786
X92939Y65913
X101829Y56896
X87986Y54229
X85598Y56210
X81686Y64008
X86081Y62357
X88087Y62611
X92812Y57150
X83922Y69088
X88494Y68326
X88062Y71120
X93142Y70841
X84811Y64643
X97434Y70663
X95479Y54026
X101397Y62992
X95606Y58928
X93320Y58928
X98806Y61595
X92583Y59690
X86563Y56490
X88138Y58293
X96774Y68961
X99060Y71628
X96774Y59690
X88519Y70485
X92329Y70485
X101981Y71755
X97917Y57404
X96774Y61722
X88646Y61722
X92075Y57150
X88265Y63446
X87353Y65546
X88415Y65532
X92456Y65405
X92456Y63500
X93980Y58293
X87884Y67437
X88011Y68961
X109957Y66040
X107493Y66040
X124333Y75819
X109093Y75819
X105283Y72009
X105283Y56769
X120752Y64643
X118720Y67691
X120752Y63119
X123927Y62230
X122657Y62992
X115545Y59055
X117069Y59055
X123165Y58039
X112497Y65786
X118847Y65913
X127737Y56896
X113894Y54229
X111506Y56210
X107594Y64008
X111989Y62357
X113995Y62611
X118720Y57150
X109830Y69088
X114402Y68326
X113970Y71120
X119050Y70841
X110719Y64643
X123342Y70663
X121387Y54026
X127305Y62992
X121514Y58928
X119228Y58928
X124714Y61595
X118491Y59690
X112471Y56490
X114046Y58293
X122682Y68961
X124968Y71628
X122682Y59690
X114427Y70485
X118237Y70485
X127889Y71755
X123825Y57404
X122682Y61722
X114554Y61722
X117983Y57150
X114173Y63446
X113261Y65546
X114323Y65532
X118364Y65405
X118364Y63500
X119888Y58293
X113792Y67437
X113919Y68961
X135865Y66040
X133401Y66040
X150241Y75819
X135001Y75819
X131191Y72009
X131191Y56769
X146660Y64643
X144628Y67691
X146660Y63119
X149835Y62230
X148565Y62992
X141453Y59055
X142977Y59055
X149073Y58039
X138405Y65786
X144755Y65913
X153645Y56896
X139802Y54229
X137414Y56210
X133502Y64008
X137897Y62357
X139903Y62611
X144628Y57150
X135738Y69088
X140310Y68326
X139878Y71120
X144958Y70841
X136627Y64643
X149250Y70663
X147295Y54026
X153213Y62992
X147422Y58928
X145136Y58928
X150622Y61595
X144399Y59690
X138379Y56490
X139954Y58293
X148590Y68961
X150876Y71628
X148590Y59690
X140335Y70485
X144145Y70485
X153797Y71755
X149733Y57404
X148590Y61722
X140462Y61722
X143891Y57150
X140081Y63446
X139169Y65546
X140231Y65532
X144272Y65405
X144272Y63500
X145796Y58293
X139700Y67437
X139827Y68961
X6325Y91948
X3861Y91948
X20701Y101727
X5461Y101727
X1651Y97917
X1651Y82677
X17120Y90551
X15088Y93599
X17120Y89027
X20295Y88138
X19025Y88900
X11913Y84963
X13437Y84963
X19533Y83947
X8865Y91694
X15215Y91821
X24105Y82804
X10262Y80137
X7874Y82118
X3962Y89916
X8357Y88265
X10363Y88519
X15088Y83058
X6198Y94996
X10770Y94234
X10338Y97028
X15418Y96749
X7087Y90551
X19710Y96571
X17755Y79934
X23673Y88900
X17882Y84836
X15596Y84836
X21082Y87503
X14859Y85598
X8839Y82398
X10414Y84201
X19050Y94869
X21336Y97536
X19050Y85598
X10795Y96393
X14605Y96393
X24257Y97663
X20193Y83312
X19050Y87630
X10922Y87630
X14351Y83058
X10541Y89354
X9629Y91454
X10691Y91440
X14732Y91313
X14732Y89408
X16256Y84201
X10160Y93345
X10287Y94869
X32233Y91948
X29769Y91948
X46609Y101727
X31369Y101727
X27559Y97917
X27559Y82677
X43028Y90551
X40996Y93599
X43028Y89027
X46203Y88138
X44933Y88900
X37821Y84963
X39345Y84963
X45441Y83947
X34773Y91694
X41123Y91821
X50013Y82804
X36170Y80137
X33782Y82118
X29870Y89916
X34265Y88265
X36271Y88519
X40996Y83058
X32106Y94996
X36678Y94234
X36246Y97028
X41326Y96749
X32995Y90551
X45618Y96571
X43663Y79934
X49581Y88900
X43790Y84836
X41504Y84836
X46990Y87503
X40767Y85598
X34747Y82398
X36322Y84201
X44958Y94869
X47244Y97536
X44958Y85598
X36703Y96393
X40513Y96393
X50165Y97663
X46101Y83312
X44958Y87630
X36830Y87630
X40259Y83058
X36449Y89354
X35537Y91454
X36599Y91440
X40640Y91313
X40640Y89408
X42164Y84201
X36068Y93345
X36195Y94869
X58141Y91948
X55677Y91948
X72517Y101727
X57277Y101727
X53467Y97917
X53467Y82677
X68936Y90551
X66904Y93599
X68936Y89027
X72111Y88138
X70841Y88900
X63729Y84963
X65253Y84963
X71349Y83947
X60681Y91694
X67031Y91821
X75921Y82804
X62078Y80137
X59690Y82118
X55778Y89916
X60173Y88265
X62179Y88519
X66904Y83058
X58014Y94996
X62586Y94234
X62154Y97028
X67234Y96749
X58903Y90551
X71526Y96571
X69571Y79934
X75489Y88900
X69698Y84836
X67412Y84836
X72898Y87503
X66675Y85598
X60655Y82398
X62230Y84201
X70866Y94869
X73152Y97536
X70866Y85598
X62611Y96393
X66421Y96393
X76073Y97663
X72009Y83312
X70866Y87630
X62738Y87630
X66167Y83058
X62357Y89354
X61445Y91454
X62507Y91440
X66548Y91313
X66548Y89408
X68072Y84201
X61976Y93345
X62103Y94869
X84049Y91948
X81585Y91948
X98425Y101727
X83185Y101727
X79375Y97917
X79375Y82677
X94844Y90551
X92812Y93599
X94844Y89027
X98019Y88138
X96749Y88900
X89637Y84963
X91161Y84963
X97257Y83947
X6325Y14224
X92939Y91821
X101829Y82804
X87986Y80137
X85598Y82118
X81686Y89916
X86081Y88265
X88087Y88519
X92812Y83058
X83922Y94996
X88494Y94234
X88062Y97028
X93142Y96749
X84811Y90551
X97434Y96571
X95479Y79934
X101397Y88900
X95606Y84836
X93320Y84836
X98806Y87503
X92583Y85598
X86563Y82398
X88138Y84201
X96774Y94869
X99060Y97536
X96774Y85598
X88519Y96393
X92329Y96393
X101981Y97663
X97917Y83312
X96774Y87630
X88646Y87630
X92075Y83058
X88265Y89354
X87353Y91454
X88415Y91440
X92456Y91313
X92456Y89408
X93980Y84201
X87884Y93345
X88011Y94869
X109957Y91948
X107493Y91948
X124333Y101727
X109093Y101727
X105283Y97917
X105283Y82677
X120752Y90551
X118720Y93599
X120752Y89027
X123927Y88138
X122657Y88900
X115545Y84963
X117069Y84963
X123165Y83947
X112497Y91694
X118847Y91821
X127737Y82804
X113894Y80137
X111506Y82118
X107594Y89916
X111989Y88265
X113995Y88519
X118720Y83058
X109830Y94996
X114402Y94234
X113970Y97028
X119050Y96749
X110719Y90551
X123342Y96571
X121387Y79934
X127305Y88900
X121514Y84836
X119228Y84836
X124714Y87503
X118491Y85598
X112471Y82398
X114046Y84201
X122682Y94869
X124968Y97536
X122682Y85598
X114427Y96393
X118237Y96393
X127889Y97663
X123825Y83312
X122682Y87630
X114554Y87630
X117983Y83058
X114173Y89354
X113261Y91454
X114323Y91440
X118364Y91313
X118364Y89408
X119888Y84201
X113792Y93345
X113919Y94869
X135865Y91948
X133401Y91948
X150241Y101727
X135001Y101727
X131191Y97917
X131191Y82677
X146660Y90551
X144628Y93599
X146660Y89027
X149835Y88138
X148565Y88900
X141453Y84963
X142977Y84963
X149073Y83947
X138405Y91694
X144755Y91821
X153645Y82804
X139802Y80137
X137414Y82118
X133502Y89916
X137897Y88265
X139903Y88519
X144628Y83058
X135738Y94996
X140310Y94234
X139878Y97028
X144958Y96749
X136627Y90551
X149250Y96571
X147295Y79934
X153213Y88900
X147422Y84836
X145136Y84836
X150622Y87503
X144399Y85598
X138379Y82398
X139954Y84201
X148590Y94869
X150876Y97536
X148590Y85598
X140335Y96393
X144145Y96393
X153797Y97663
X149733Y83312
X148590Y87630
X140462Y87630
X143891Y83058
X140081Y89354
X139169Y91454
X140231Y91440
X144272Y91313
X144272Y89408
X145796Y84201
X139700Y93345
X139827Y94869
X3861Y14224
X20701Y24003
X5461Y24003
X1651Y20193
X1651Y4953
X17120Y12827
X15088Y15875
X17120Y11303
X20295Y10414
X19025Y11176
X11913Y7239
X13437Y7239
X19533Y6223
X8865Y13970
X15215Y14097
X24105Y5080
X10262Y2413
X7874Y4394
X3962Y12192
X8357Y10541
X10363Y10795
X15088Y5334
X6198Y17272
X10770Y16510
X10338Y19304
X15418Y19025
X7087Y12827
X19710Y18847
X17755Y2210
X23673Y11176
X17882Y7112
X15596Y7112
X21082Y9779
X14859Y7874
X8839Y4674
X10414Y6477
X19050Y17145
X21336Y19812
X19050Y7874
X10795Y18669
X14605Y18669
X24257Y19939
X20193Y5588
X19050Y9906
X70841Y62992
X10922Y9906
X14351Y5334
X10541Y11630
X9629Y13730
X10691Y13716
X14732Y13589
X14732Y11684
X16256Y6477
X10160Y15621
X10287Y17145
X32233Y14224
X29769Y14224
X46609Y24003
X31369Y24003
X27559Y20193
X27559Y4953
X43028Y12827
X40996Y15875
X43028Y11303
X46203Y10414
X44933Y11176
X37821Y7239
X39345Y7239
X45441Y6223
X34773Y13970
X41123Y14097
X50013Y5080
X36170Y2413
X33782Y4394
X29870Y12192
X34265Y10541
X36271Y10795
X40996Y5334
X32106Y17272
X36678Y16510
X36246Y19304
X41326Y19025
X32995Y12827
X45618Y18847
X43663Y2210
X49581Y11176
X43790Y7112
X41504Y7112
X46990Y9779
X40767Y7874
X34747Y4674
X36322Y6477
X44958Y17145
X47244Y19812
X44958Y7874
X36703Y18669
X40513Y18669
X50165Y19939
X46101Y5588
X44958Y9906
X36830Y9906
X40259Y5334
X36449Y11630
X35537Y13730
X36599Y13716
X40640Y13589
X40640Y11684
X42164Y6477
X36068Y15621
X36195Y17145
X58141Y14224
X55677Y14224
X72517Y24003
X57277Y24003
X53467Y20193
X53467Y4953
X68936Y12827
X66904Y15875
X68936Y11303
X72111Y10414
X70841Y11176
X63729Y7239
X65253Y7239
X71349Y6223
X60681Y13970
X67031Y14097
X75921Y5080
X62078Y2413
X59690Y4394
X55778Y12192
X60173Y10541
X62179Y10795
X66904Y5334
X58014Y17272
X62586Y16510
X62154Y19304
X67234Y19025
X58903Y12827
X71526Y18847
X69571Y2210
X75489Y11176
X69698Y7112
X67412Y7112
X72898Y9779
X66675Y7874
X60655Y4674
X62230Y6477
X70866Y17145
X73152Y19812
X70866Y7874
X62611Y18669
X66421Y18669
X76073Y19939
X72009Y5588
X70866Y9906
X62738Y9906
X66167Y5334
X62357Y11630
X61445Y13730
X62507Y13716
X66548Y13589
X66548Y11684
X68072Y6477
X61976Y15621
X62103Y17145
X84049Y14224
X81585Y14224
X98425Y24003
X83185Y24003
X79375Y20193
X79375Y4953
X94844Y12827
X92812Y15875
X94844Y11303
X98019Y10414
X96749Y11176
X89637Y7239
X91161Y7239
X97257Y6223
X86589Y13970
X92939Y14097
X101829Y5080
X87986Y2413
X85598Y4394
X81686Y12192
X86081Y10541
X88087Y10795
X92812Y5334
X83922Y17272
X88494Y16510
X88062Y19304
X93142Y19025
X84811Y12827
X97434Y18847
X95479Y2210
X95606Y7112
X93320Y7112
X98806Y9779
X92583Y7874
X86563Y4674
X88138Y6477
X96774Y17145
X99060Y19812
X96774Y7874
X88519Y18669
X92329Y18669
X101981Y19939
X97917Y5588
X96774Y9906
X88646Y9906
X92075Y5334
X88265Y11630
X87353Y13730
X88415Y13716
X92456Y13589
X92456Y11684
X93980Y6477
X87884Y15621
X88011Y17145
X109957Y14224
X107493Y14224
X124333Y24003
X109093Y24003
X105283Y20193
X105283Y4953
X120752Y12827
X118720Y15875
X120752Y11303
X123927Y10414
X122657Y11176
X115545Y7239
X117069Y7239
X123165Y6223
X112497Y13970
X118847Y14097
X127737Y5080
X113894Y2413
X111506Y4394
X107594Y12192
X86589Y91694
M30